<?xml version="1.0" encoding="UTF-8"?> <svg xmlns="http://www.w3.org/2000/svg" width="196" height="48" viewBox="0 0 196 48" fill="none"><path d="M101.585 20.7453L105.253 32.1351L111.176 16.2614H116.463L107.699 39.5684H102.987L99.6904 29.4375C99.2623 28.1312 99.2962 26.7174 99.7863 25.4331L101.585 20.7453ZM69.6334 8.75609H74.9207V39.4485H69.6334V8.75609ZM118.226 8.75609H123.489V19.8941C124.226 18.6442 125.279 17.6097 126.541 16.8944C127.803 16.179 129.232 15.8077 130.683 15.8178C135.874 15.8178 138.895 19.3186 138.895 24.7138V39.4006H133.608V26.2124C133.608 22.6157 131.822 20.5535 128.668 20.5535C125.515 20.5535 123.489 22.7355 123.489 26.3323V39.4006H118.226V8.75609ZM190.713 8.75609H196V39.4485H190.713V8.75609ZM45.0435 39.4006V8.70813H66.6241V13.6117H50.4146V22.0042H64.6339V26.9198H50.4146V39.4006H45.0435ZM83.6248 46.5941H78.6733L80.3278 42.0742H83.1213C84.608 42.0742 85.5191 41.4148 86.3943 39.4006L76.731 16.2494H82.354L88.9121 33.4299L94.9067 16.2494H100.41L91.226 40.06C89.3917 44.7958 87.3415 46.5222 83.6248 46.5222V46.5941ZM153.318 39.9761C146.64 39.9761 141.485 35.1084 141.485 27.8669C141.485 21.2489 146.161 15.8777 152.755 15.8777C160.092 15.8777 163.809 21.6565 163.809 28.3225C163.804 28.8234 163.772 29.3237 163.713 29.8212H146.772C146.918 31.4639 147.688 32.9882 148.924 34.0809C150.159 35.1735 151.766 35.7515 153.414 35.6959C154.591 35.6982 155.756 35.4528 156.832 34.9756C157.908 34.4985 158.872 33.8003 159.661 32.9264L162.754 35.6959C161.613 37.0799 160.168 38.1819 158.531 38.9159C156.895 39.65 155.111 39.9964 153.318 39.9281V39.9761ZM146.724 26.2484H158.558C158.21 22.8315 156.16 20.1579 152.707 20.1579C149.482 20.1459 147.204 22.6037 146.724 26.2004V26.2484ZM177.513 39.9281C170.835 39.9281 165.679 35.0605 165.679 27.819C165.679 21.2009 170.355 15.8297 176.949 15.8297C184.287 15.8297 187.991 21.6086 187.991 28.2746C187.99 28.7753 187.962 29.2755 187.907 29.7732H170.966C171.11 31.4171 171.879 32.9431 173.115 34.0363C174.351 35.1295 175.959 35.7064 177.609 35.648C178.784 35.6485 179.946 35.4023 181.02 34.9252C182.094 34.4481 183.056 33.7508 183.843 32.8784L186.948 35.648C185.812 37.0407 184.369 38.1518 182.732 38.8943C181.095 39.6368 179.309 39.9907 177.513 39.9281ZM170.919 26.2004H182.752C182.404 22.7835 180.354 20.1099 176.901 20.1099C173.676 20.1459 171.446 22.6037 170.919 26.2004Z" fill="white"></path><path d="M32.9225 1.91002C32.8498 1.72615 32.7415 1.55848 32.6038 1.41666C32.4661 1.27483 32.3017 1.16166 32.12 1.08365C31.9384 1.00564 31.7431 0.96434 31.5454 0.96213C31.3477 0.95992 31.1516 0.996841 30.9682 1.07077L0.94715 13.12C0.668216 13.2303 0.428831 13.4219 0.259971 13.6699C0.0911111 13.9178 0.000547914 14.2107 5.80593e-09 14.5107L5.80592e-09 23.7424C-1.68405e-05 23.9315 0.0366271 24.1188 0.107903 24.2939C0.257207 24.6632 0.546314 24.9586 0.912307 25.1157C1.2783 25.2729 1.69156 25.2792 2.06215 25.1332L32.0353 13.1439C32.3142 13.0335 32.5536 12.842 32.7224 12.594C32.8913 12.3461 32.9819 12.0532 32.9824 11.7532V2.46152C32.999 2.27553 32.9786 2.08809 32.9225 1.91002ZM26.772 18.599L0.94715 28.8618C0.668216 28.9722 0.428831 29.1638 0.259971 29.4117C0.0911111 29.6597 0.000547914 29.9526 5.80592e-09 30.2526V42.3257C0.00152663 42.6192 0.0885133 42.9059 0.25033 43.1508C0.412147 43.3956 0.641785 43.588 0.911182 43.7045L9.59139 47.3972C9.77652 47.4783 9.97676 47.5192 10.1789 47.5171C10.3767 47.5187 10.5728 47.4811 10.7561 47.4065C10.9393 47.3319 11.1059 47.2217 11.2463 47.0824C11.3868 46.9431 11.4982 46.7773 11.5743 46.5947C11.6504 46.4121 11.6895 46.2163 11.6895 46.0184V37.9856C11.6901 37.6857 11.7806 37.3927 11.9495 37.1448C12.1183 36.8968 12.3577 36.7053 12.6367 36.5949L27.863 30.6003C28.139 30.4827 28.3735 30.2851 28.5359 30.0329C28.6983 29.7806 28.7814 29.4855 28.7742 29.1855V20.0018C28.7742 19.8088 28.7376 19.6176 28.6663 19.4383C28.5194 19.0814 28.2404 18.7949 27.8875 18.6386C27.5346 18.4823 27.135 18.4681 26.772 18.599Z" fill="url(#paint0_linear_568_6379)"></path><defs><linearGradient id="paint0_linear_568_6379" x1="-7.4693" y1="57.9118" x2="30.0091" y2="-3.85681" gradientUnits="userSpaceOnUse"><stop stop-color="#093AF6"></stop><stop offset="0.5" stop-color="#1B68FA"></stop><stop offset="0.92" stop-color="#B080FC"></stop></linearGradient></defs></svg> 